<svg width="7" height="8" viewBox="0 0 7 8" fill="none" xmlns="http://www.w3.org/2000/svg">
<path d="M0.444309 7.11111H5.77764C5.89025 7.11115 5.99864 7.15392 6.08093 7.2308C6.16321 7.30767 6.21324 7.41292 6.22092 7.52526C6.22859 7.63761 6.19334 7.74868 6.12227 7.83603C6.05121 7.92338 5.94964 7.9805 5.83809 7.99585L5.77764 8H0.444309C0.331702 7.99997 0.223307 7.95719 0.141025 7.88031C0.058743 7.80344 0.00870956 7.69819 0.0010343 7.58585C-0.00664095 7.4735 0.0286142 7.36243 0.0996763 7.27508C0.170738 7.18773 0.272309 7.13061 0.383864 7.11526L0.444309 7.11111H5.77764H0.444309ZM3.05053 0.00414813L3.11098 0C3.21838 4.52912e-06 3.32214 0.0388994 3.40308 0.109492C3.48402 0.180084 3.53667 0.277598 3.55127 0.384L3.55542 0.444444V5.0003L4.89172 3.66459C4.96708 3.58926 5.067 3.5435 5.17327 3.53567C5.27954 3.52784 5.38509 3.55845 5.47068 3.62193L5.52046 3.66459C5.59579 3.73995 5.64155 3.83987 5.64938 3.94615C5.65721 4.05242 5.6266 4.15796 5.56312 4.24356L5.52046 4.29333L3.42505 6.38815C3.3498 6.46342 3.25003 6.50918 3.14389 6.51712C3.03775 6.52506 2.93229 6.49465 2.84668 6.43141L2.7969 6.38815L0.701494 4.29333C0.621972 4.21403 0.575422 4.10756 0.571202 3.99533C0.566981 3.88311 0.605405 3.77344 0.678746 3.68839C0.752087 3.60334 0.854908 3.54921 0.966536 3.53687C1.07816 3.52454 1.19032 3.55493 1.28046 3.62193L1.33023 3.66459L2.66653 5.00148V0.444444C2.66654 0.337044 2.70543 0.233279 2.77602 0.152337C2.84661 0.071396 2.94413 0.0187545 3.05053 0.00414813L3.11098 0L3.05053 0.00414813Z" fill="#1EB94B"/>
</svg>
